PathFileType	4	(X/Y/Z)	C:/Users/beibeiliu/ov580/test_trc/User1\sequence.33_training_dense_left.trc
DataRate	CameraRate	NumFrames	NumMarkers	Units	OrigDataRate	OrigDataStartFrame	OrigNumFrames
120	120	10	19	mm	120	196	260
Frame#	Time	ThumbCMC			ThumbMCP			ThumbIP			ThumbTip			IndexMCP			IndexPIP			IndexTip			MiddleMCP			MiddlePIP			MiddleTip			RingMCP			RingPIP			RingTip			PinkyMCP			PinkyPIP			PinkyTip			BackHand1			BackHand2			BackHand3	
		X0	Y0	Z0	X1	Y1	Z1	X2	Y2	Z2	X3	Y3	Z3	X4	Y4	Z4	X5	Y5	Z5	X6	Y6	Z6	X7	Y7	Z7	X8	Y8	Z8	X9	Y9	Z9	X10	Y10	Z10	X11	Y11	Z11	X12	Y12	Z12	X13	Y13	Z13	X14	Y14	Z14	X15	Y15	Z15	X16	Y16	Z16	X17	Y17	Z17	X18	Y18	Z18	
195	1.625	-111.94	13.4611	33.327	-94.5577	-5.92619	21.2807	-72.7883	-14.9291	5.35827	-55.6908	-23.8353	2.54082	-130.614	25.0683	-48.8347	-133.805	28.3781	-78.4403	-137.618	31.3519	-100.021	-160.344	32.3865	-56.3202	-166.623	35.4928	-78.7874	-171.081	42.6732	-110.389	-185.761	26.0422	-44.1877	-191.077	33.3158	-68.7339	-195.083	38.7152	-91.8133	-206.214	11.746	-25.3815	-215.619	14.4255	-38.3568	-229.129	27.1201	-57.6704	-178.267	31.8323	4.80788	-176.967	37.7589	35.2953	-144.573	37.5634	15.3471	
196	1.63333	-114.731	13.9756	31.2474	-95.6643	-5.04557	21.729	-73.7256	-14.7087	8.31514	-51.6531	-22.4429	-1.13453	-129.83	26.5029	-49.962	-134.104	27.6172	-74.1971	-139.581	32.3801	-100.269	-160.702	32.5138	-53.4815	-167.357	36.8384	-83.5112	-168.379	44.0376	-112.14	-184.622	28.1727	-46.1934	-186.549	35.3919	-73.4081	-192.235	39.9429	-94.7928	-205.236	11.9706	-25.312	-217.729	15.6322	-39.9237	-231.143	26.931	-55.8191	-180.981	30.985	5.22225	-180.694	38.9728	37.4748	-142.741	37.5746	19.8717	
197	1.64167	-110.982	15.0039	31.6098	-96.0615	-5.31007	21.4993	-75.1921	-14.6926	3.50472	-54.1721	-22.2181	-0.783254	-129.558	28.7068	-52.1675	-133.612	30.3612	-78.2544	-136.375	33.4465	-99.1742	-162.636	34.1932	-53.9316	-161.736	38.0975	-80.9453	-168.08	44.9932	-112.374	-183.251	29.5598	-45.7831	-186.495	35.9892	-71.5078	-195.148	39.4885	-94.6684	-205.766	13.5137	-25.545	-218.563	16.0508	-40.1471	-229.099	28.9186	-53.8824	-179.147	31.0431	4.68421	-180.608	35.8151	40.7402	-146.354	37.3222	17.4029	
198	1.65	-111.041	14.2169	35.4826	-97.4134	-5.84627	18.7055	-77.277	-14.5325	5.69099	-56.8137	-21.8866	-4.67505	-130.792	29.4198	-48.1327	-129.56	32.6768	-75.4925	-137.821	35.8773	-99.2665	-162.913	36.6773	-57.0224	-166.139	40.5091	-84.1958	-167.901	45.3859	-111.933	-186.085	30.3306	-43.7398	-191.43	37.3215	-72.0792	-192.289	40.4646	-93.9618	-206.534	13.6703	-22.4655	-219.311	16.865	-38.2678	-230.388	28.4013	-53.1286	-181.349	32.122	3.8939	-179.891	35.4339	39.4925	-146.226	38.5559	22.2729	
199	1.65833	-115.95	13.3485	31.5179	-97.4134	-4.87068	15.091	-75.3565	-13.6382	-0.838561	-60.1757	-21.8537	-7.02072	-133.709	33.6672	-50.1725	-132.972	35.0855	-74.5035	-135.371	38.276	-100.14	-160.113	39.4711	-55.2363	-164.531	41.1295	-80.053	-170.326	44.9495	-108.4	-183.675	31.951	-44.4382	-188.094	37.1501	-70.8089	-194.096	40.3317	-96.6216	-210.589	14.8601	-27.0608	-216.955	16.6985	-39.7392	-231.761	25.6187	-55.041	-177.883	31.7651	5.81722	-181.588	35.2733	41.1749	-143.106	40.0155	19.9668	
200	1.66667	-114.85	13.7237	31.8816	-96.8409	-4.40323	15.0134	-76.361	-13.3023	-0.73274	-62.906	-21.7932	-13.178	-134.499	37.083	-49.7258	-131.883	38.7397	-72.263	-133.884	40.1296	-100.166	-164.292	39.3259	-50.201	-162.03	44.1037	-83.1238	-171.033	43.224	-109.873	-181.952	31.8139	-42.5208	-188.923	36.2642	-69.4693	-190.912	37.5783	-97.4956	-206.487	14.1084	-25.554	-217.612	14.7936	-42.4993	-232.598	24.2287	-60.5074	-182.029	31.3147	11.2592	-184.426	33.3262	43.9234	-149.789	39.188	26.7272	
201	1.675	-114.449	13.1847	33.3894	-95.1212	-5.61991	19.9629	-80.9235	-12.8719	0.412334	-65.9413	-22.4714	-12.8788	-135.277	37.6779	-45.0475	-134.036	40.6345	-75.0605	-135.17	39.1114	-97.3415	-160.495	41.6584	-51.103	-162.304	42.0302	-83.4397	-167.446	40.4687	-110.373	-186.685	31.9636	-46.1292	-189.734	33.1179	-74.5201	-191.224	32.1557	-101.045	-208.685	12.868	-27.4231	-219.389	12.0766	-47.2818	-227.602	16.3481	-65.8881	-183.249	32.4957	8.80352	-182.632	31.9812	46.853	-149.564	39.5854	29.4994	
202	1.68333	-117.101	12.6339	39.4613	-101.858	-3.45828	13.7939	-85.4322	-11.5126	-4.70656	-68.5565	-21.7149	-17.2209	-132.565	40.57	-40.4034	-130.993	43.5367	-71.4936	-135.691	38.5663	-96.0357	-159.968	41.7703	-48.0427	-158.966	41.9047	-82.552	-165.955	34.1325	-108.918	-180.965	30.8664	-45.4397	-182.803	29.7675	-71.7511	-183.679	22.3518	-98.0042	-206.606	10.7604	-31.4306	-213.267	8.5343	-46.6112	-221.019	9.40662	-71.0596	-182.294	31.6474	10.6172	-184.339	32.0385	46.549	-151.538	38.3335	27.5206	
203	1.69167	-117.102	13.9092	38.186	-98.5998	-3.46712	14.1491	-85.1313	-10.3891	-7.50853	-76.6799	-18.4006	-23.4871	-135.679	43.4603	-38.7124	-130.819	45.6318	-65.7663	-134.28	37.5063	-94.2375	-161.01	41.6969	-45.8528	-157.339	39.7303	-79.0189	-156.246	27.748	-107.517	-183.92	27.7455	-43.9863	-179.433	22.6761	-76.6641	-179.553	10.4839	-100.655	-203.626	9.77096	-26.9046	-208.379	4.87652	-51.4988	-208.721	2.38323	-73.6057	-186.874	30.5242	12.7065	-191.104	27.8636	49.8491	-150.399	38.4705	31.8395	
204	1.7	-122.097	13.9753	40.8802	-101.222	-1.08347	15.6944	-92.6649	-7.98201	-5.5	-81.2472	-15.7365	-30.1392	-132.525	48.523	-37.7756	-135.11	46.2464	-66.4782	-131.578	34.1283	-93.6448	-163.349	43.5429	-44.0066	-158.458	40.0093	-74.3647	-155.991	20.9718	-102.935	-180.039	28.6544	-42.1315	-176.298	18.3643	-74.4767	-172.778	2.52017	-92.2429	-202.721	10.2911	-26.401	-203.989	3.88701	-50.5666	-201.795	-2.65369	-75.1479	-184.708	31.3961	17.9323	-187.871	26.0117	51.8625	-154.609	38.8877	37.7188	
